<svg id="Velas" xmlns="http://www.w3.org/2000/svg" viewBox="0 0 1366 768">
    <defs>
        <style>.candle-1{fill:#f2f2f2;}.candle-2{fill:#333;}</style>
    </defs>
    <path class="candle-1" d="M580.18,194.48l.57-13.37-.29-8.06-.57-7-12.32,14-2.82,11.8-.62,10.78.25,10-.25,13.72.57,7-.51,14.42.34,6.79-1,7.66a1.13,1.13,0,0,0,.6.64h15.13l1.11-27.39.25-10.31-.18-10.6.27-11.58Z" />
    <path class="candle-2" d="M564.75,191.87c0-9.26-.44-17.68.17-26,.33-4.55,3-8.34,7.19-8.67,3.89-.3,6.1,2.85,7.47,6.93a5.4,5.4,0,0,1,0,3.62C574.83,175.7,569.93,183.49,564.75,191.87Z" />
    <path class="candle-2" d="M564.7,233.31c-1.38-9-.37-15.72,4.26-21.78,4-5.25,7.24-11.43,11.22-17.05.31,6,1.79,11.94-2.13,17.51C573.44,218.53,569.41,225.72,564.7,233.31Z" />
    <path class="candle-2" d="M564.53,254.52c-.42-7.6-1.18-13.69,2.85-19.28,4.51-6.22,8.36-13.18,13.06-20.72.45,7.74,1.09,13.93-3.12,19.62C572.85,240.17,569.14,247.07,564.53,254.52Z" />
    <path class="candle-2" d="M580.46,173.05c.52,7.61.88,13.62-3.2,19.11-4.41,5.93-8.07,12.73-12.88,20.47.09-6.54-1.42-11.65,1.72-16.51C570.81,188.82,575.33,181.32,580.46,173.05Z" />
    <path class="candle-2" d="M563.67,262.46c.77.92,4.16,1.61,8.24,1.61,4.64,0,8.4-.89,8.4-2h.06V235.43Z" />
    <path class="candle-1" d="M801.87,194.48l.57-13.37-.28-8.06-.57-7-12.32,14-2.83,11.8-.61,10.78.25,10-.25,13.72.57,7-.51,14.42.33,6.79-1,7.66a1.1,1.1,0,0,0,.59.64H801l1.12-27.39.25-10.31-.19-10.6.28-11.58Z" />
    <path class="candle-2" d="M786.44,191.87c0-9.26-.43-17.68.18-26,.33-4.55,3-8.34,7.19-8.67,3.88-.3,6.09,2.85,7.47,6.93a5.4,5.4,0,0,1,0,3.62C796.53,175.7,791.63,183.49,786.44,191.87Z" />
    <path class="candle-2" d="M786.4,233.31c-1.38-9-.37-15.72,4.25-21.78,4-5.25,7.24-11.43,11.22-17.05.32,6,1.8,11.94-2.12,17.51C795.14,218.53,791.11,225.72,786.4,233.31Z" />
    <path class="candle-2" d="M786.22,254.52c-.41-7.6-1.17-13.69,2.86-19.28,4.5-6.22,8.36-13.18,13-20.72.45,7.74,1.1,13.93-3.11,19.62C794.55,240.17,790.84,247.07,786.22,254.52Z" />
    <path class="candle-2" d="M802.16,173.05c.51,7.61.88,13.62-3.2,19.11-4.41,5.93-8.08,12.73-12.88,20.47.09-6.54-1.42-11.65,1.72-16.51C792.51,188.82,797,181.32,802.16,173.05Z" />
    <path class="candle-2" d="M785.37,262.46c.76.92,4.16,1.61,8.24,1.61,4.64,0,8.4-.89,8.4-2h.06V235.43Z" />
    <path class="candle-1" d="M691,208.48l.58-13.37-.29-8.06-.57-7-12.32,14-2.82,11.8L675,216.65l.25,10L675,240.35l.57,7L675,261.73l.34,6.79-1,7.66a1.13,1.13,0,0,0,.6.64H690.1l1.12-27.39.25-10.31-.19-10.6.28-11.58Z" />
    <path class="candle-2" d="M675.6,205.87c0-9.26-.44-17.68.17-26,.33-4.55,3-8.34,7.19-8.67,3.89-.3,6.09,2.85,7.47,6.93a5.47,5.47,0,0,1,0,3.62C685.68,189.7,680.78,197.49,675.6,205.87Z" />
    <path class="candle-2" d="M675.55,247.31c-1.38-9-.37-15.72,4.25-21.78,4-5.25,7.24-11.43,11.22-17.05.32,6,1.8,11.94-2.12,17.51C684.29,232.53,680.26,239.72,675.55,247.31Z" />
    <path class="candle-2" d="M675.38,268.52c-.42-7.6-1.18-13.69,2.85-19.28,4.5-6.22,8.36-13.18,13-20.72.45,7.74,1.1,13.93-3.11,19.62C683.7,254.17,680,261.07,675.38,268.52Z" />
    <path class="candle-2" d="M691.31,187.05c.51,7.61.88,13.62-3.2,19.11-4.41,5.93-8.08,12.73-12.88,20.47.09-6.54-1.42-11.65,1.72-16.51C681.66,202.82,686.18,195.32,691.31,187.05Z" />
    <path class="candle-2" d="M674.52,276.46c.76.92,4.16,1.61,8.24,1.61,4.64,0,8.4-.89,8.4-2h.06V249.43Z" />
    <path class="candle-1" d="M749.2,205.48l.57-13.37-.29-8.06-.57-7-12.32,14-2.82,11.8-.61,10.78.24,10-.24,13.72.57,7-.52,14.42.34,6.79-1,7.66a1.1,1.1,0,0,0,.59.64h15.13l1.11-27.39.26-10.31-.19-10.6.27-11.58Z" />
    <path class="candle-2" d="M733.77,202.87c0-9.26-.43-17.68.17-26,.33-4.55,3-8.34,7.19-8.67,3.89-.3,6.1,2.85,7.47,6.93a5.4,5.4,0,0,1,0,3.62C743.85,186.7,739,194.49,733.77,202.87Z" />
    <path class="candle-2" d="M733.73,244.31c-1.38-9-.37-15.72,4.25-21.78,4-5.25,7.24-11.43,11.22-17.05.32,6,1.79,11.94-2.12,17.51C742.46,229.53,738.43,236.72,733.73,244.31Z" />
    <path class="candle-2" d="M733.55,265.52c-.42-7.6-1.18-13.69,2.86-19.28,4.5-6.22,8.35-13.18,13.05-20.72.45,7.74,1.09,13.93-3.12,19.62C741.88,251.17,738.17,258.07,733.55,265.52Z" />
    <path class="candle-2" d="M749.48,184.05c.52,7.61.89,13.62-3.19,19.11-4.41,5.93-8.08,12.73-12.89,20.47.09-6.54-1.41-11.65,1.72-16.51C739.84,199.82,744.35,192.32,749.48,184.05Z" />
    <path class="candle-2" d="M732.7,273.46c.76.92,4.16,1.61,8.23,1.61,4.64,0,8.4-.89,8.4-2h.06V246.43C743.43,256.07,738.06,264.77,732.7,273.46Z" />
    <path class="candle-1" d="M632.85,205.48l.57-13.37-.29-8.06-.57-7-12.31,14-2.83,11.8-.61,10.78.25,10-.25,13.72.57,7-.51,14.42.33,6.79-1,7.66a1.1,1.1,0,0,0,.59.64h15.13l1.12-27.39.25-10.31-.19-10.6.27-11.58Z" />
    <path class="candle-2" d="M617.42,202.87c0-9.26-.43-17.68.17-26,.33-4.55,3-8.34,7.2-8.67,3.88-.3,6.09,2.85,7.47,6.93a5.4,5.4,0,0,1,0,3.62C627.5,186.7,622.61,194.49,617.42,202.87Z" />
    <path class="candle-2" d="M617.38,244.31c-1.38-9-.37-15.72,4.25-21.78,4-5.25,7.24-11.43,11.22-17.05.32,6,1.79,11.94-2.12,17.51C626.11,229.53,622.08,236.72,617.38,244.31Z" />
    <path class="candle-2" d="M617.2,265.52c-.41-7.6-1.18-13.69,2.86-19.28,4.5-6.22,8.36-13.18,13.05-20.72.45,7.74,1.09,13.93-3.12,19.62C625.53,251.17,621.82,258.07,617.2,265.52Z" />
    <path class="candle-2" d="M633.13,184.05c.52,7.61.89,13.62-3.19,19.11-4.41,5.93-8.08,12.73-12.88,20.47.08-6.54-1.42-11.65,1.72-16.51C623.49,199.82,628,192.32,633.13,184.05Z" />
    <path class="candle-2" d="M616.35,273.46c.76.92,4.16,1.61,8.23,1.61,4.64,0,8.4-.89,8.4-2h.07V246.43C627.09,256.07,621.71,264.77,616.35,273.46Z" />
    <path class="candle-1" d="M536.5,180.48l.57-13.37-.28-8.06-.57-7-12.32,14-2.83,11.8-.61,10.78.25,10-.25,13.72.57,7-.51,14.42.33,6.79-1,7.66a1.1,1.1,0,0,0,.59.64h15.13l1.12-27.39.25-10.31-.19-10.6.28-11.58Z" />
    <path class="candle-2" d="M521.07,177.87c0-9.26-.43-17.68.17-26,.33-4.55,3-8.34,7.2-8.67,3.88-.3,6.09,2.85,7.47,6.93a5.4,5.4,0,0,1,0,3.62C531.15,161.7,526.26,169.49,521.07,177.87Z" />
    <path class="candle-2" d="M521,219.31c-1.38-9-.37-15.72,4.25-21.78,4-5.25,7.24-11.43,11.22-17.05.32,6,1.8,11.94-2.12,17.51C529.76,204.53,525.73,211.72,521,219.31Z" />
    <path class="candle-2" d="M520.85,240.52c-.41-7.6-1.18-13.69,2.86-19.28,4.5-6.22,8.36-13.18,13-20.72.45,7.74,1.1,13.93-3.11,19.62C529.18,226.17,525.47,233.07,520.85,240.52Z" />
    <path class="candle-2" d="M536.79,159.05c.51,7.61.88,13.62-3.2,19.11-4.41,5.93-8.08,12.73-12.88,20.47.08-6.54-1.42-11.65,1.72-16.51C527.14,174.82,531.65,167.32,536.79,159.05Z" />
    <path class="candle-2" d="M520,248.46c.76.92,4.16,1.61,8.24,1.61,4.64,0,8.4-.89,8.4-2h.06V221.43C530.74,231.07,525.36,239.77,520,248.46Z" />
    <path class="candle-1" d="M845.55,180.48l.57-13.37-.29-8.06-.57-7-12.32,14-2.82,11.8-.62,10.78.25,10-.25,13.72.58,7-.52,14.42.34,6.79-1,7.66a1.1,1.1,0,0,0,.59.64h15.13l1.11-27.39.26-10.31-.19-10.6.27-11.58Z" />
    <path class="candle-2" d="M830.12,177.87c0-9.26-.43-17.68.17-26,.33-4.55,3-8.34,7.19-8.67,3.89-.3,6.1,2.85,7.47,6.93a5.4,5.4,0,0,1,0,3.62C840.2,161.7,835.31,169.49,830.12,177.87Z" />
    <path class="candle-2" d="M830.08,219.31c-1.39-9-.38-15.72,4.25-21.78,4-5.25,7.24-11.43,11.22-17.05.31,6,1.79,11.94-2.13,17.51C838.81,204.53,834.78,211.72,830.08,219.31Z" />
    <path class="candle-2" d="M829.9,240.52c-.42-7.6-1.18-13.69,2.86-19.28,4.5-6.22,8.35-13.18,13-20.72.45,7.74,1.09,13.93-3.12,19.62C838.23,226.17,834.51,233.07,829.9,240.52Z" />
    <path class="candle-2" d="M845.83,159.05c.52,7.61.89,13.62-3.19,19.11-4.41,5.93-8.08,12.73-12.89,20.47.09-6.54-1.41-11.65,1.72-16.51C836.19,174.82,840.7,167.32,845.83,159.05Z" />
    <path class="candle-2" d="M829,248.46c.77.92,4.16,1.61,8.24,1.61,4.64,0,8.4-.89,8.4-2h.06V221.43Z" />
</svg>