<svg id="Detalhe" xmlns="http://www.w3.org/2000/svg" viewBox="0 0 1366 768">
    <defs>
        <style>.cls-1{opacity:0.75;}.cls-2{fill:none;stroke:#fff;stroke-linecap:round;stroke-miterlimit:10;stroke-width:4px;}.cls-3{fill:#444444; opacity:0.1;}</style>
    </defs>
    <g class="cls-1">
        <path class="cls-2" d="M998.35,467.63C941.68,498.3,821.77,519.45,683,519.45c-76.51,0-147.3-6.43-204.9-17.34" />
        <path class="cls-2" d="M358.8,462.44c-2-1.27-3.86-2.56-5.63-3.85" />
        <path class="cls-2" d="M448.14,495.75c-38.57-9.14-69.32-20.5-89.34-33.31" />
    </g>
    <g class="cls-1">
        <path class="cls-2" d="M495.43,269.32c32.22,17.44,100.42,29.47,179.34,29.47,43.51,0,83.76-3.66,116.53-9.86" />
        <path class="cls-2" d="M859.14,266.37c1.13-.73,2.19-1.46,3.2-2.19" />
        <path class="cls-2" d="M808.33,285.31c21.94-5.2,39.43-11.66,50.81-18.94" />
    </g>
    <path class="cls-3" d="M885.24,353.54V246c0-29.27-90.54-53-202.24-53h-.77a444.37,444.37,0,0,1,42.55,49.68l2.44,3.33,1.62,2.25,2.33,3.28,1.63,2.34q1.13,1.62,2.25,3.27c.54.8,1.09,1.59,1.63,2.4.74,1.09,1.47,2.2,2.2,3.3.54.81,1.07,1.62,1.6,2.43.75,1.14,1.48,2.3,2.22,3.44l1.51,2.36q1.59,2.52,3.15,5.05c.75,1.21,1.48,2.43,2.22,3.66.55.9,1.1,1.8,1.64,2.71.68,1.14,1.35,2.3,2,3.45.48.81,1,1.62,1.43,2.44.7,1.21,1.39,2.43,2.08,3.65.43.75.86,1.51,1.28,2.27l2.13,3.85c.38.69.76,1.39,1.13,2.09q1.11,2,2.2,4.09l.94,1.79c.78,1.48,1.55,3,2.32,4.46l.62,1.23a530,530,0,0,1,24,54.58h0c1.55,4.15,3.07,8.32,4.53,12.54h0q1.58,4.51,3.06,9.09c.09.26.17.52.26.79q1.46,4.49,2.84,9h0q3.65,11.88,6.8,24.06c.77,3,1.53,6,2.25,9,0,.14.07.28.11.43.76,3.16,1.49,6.35,2.2,9.55.19.84.37,1.69.55,2.53.53,2.42,1,4.86,1.54,7.3.18.91.37,1.83.55,2.74.64,3.21,1.26,6.42,1.85,9.65.48,2.69.93,5.37,1.38,8.05.27,1.63.53,3.25.79,4.87l.12.83c.63,4,1.2,8,1.74,12,.1.72.2,1.45.29,2.17.26,2,.52,4,.76,6,0,.46.1.93.16,1.4q.66,5.66,1.21,11.3l.21,2.21c.18,1.95.35,3.91.52,5.86l.15,2q.42,5.28.73,10.53c0,.81.1,1.62.14,2.43.11,1.87.2,3.73.28,5.6,0,.87.08,1.73.11,2.6q.19,4.82.3,9.63c0,.94.05,1.88.07,2.82,0,1.75,0,3.51.06,5.26,0,1.06,0,2.12,0,3.18,0,2.85,0,5.69-.05,8.52,0,1.16,0,2.33,0,3.49,0,1.62-.08,3.24-.13,4.86,0,1.25-.08,2.49-.12,3.74q-.14,3.54-.3,7.06c-.08,1.51-.15,3-.24,4.55s-.18,3-.28,4.42-.19,2.83-.3,4.24c-.12,1.65-.25,3.3-.39,4.94q-.26,3.17-.56,6.32c-.13,1.33-.27,2.65-.41,4-.16,1.57-.33,3.13-.51,4.7-.14,1.21-.27,2.41-.41,3.62q-.45,3.68-.94,7.33c-.16,1.17-.33,2.33-.49,3.5-.24,1.7-.5,3.4-.75,5.09-.17,1.08-.33,2.17-.5,3.24q-.6,3.74-1.24,7.44c-.18,1-.37,2-.55,3q-.5,2.72-1,5.43c-.19,1-.37,2-.57,2.93-.49,2.51-1,5-1.54,7.49-.19.88-.39,1.75-.59,2.63q-.62,2.83-1.28,5.66c-.21.91-.42,1.82-.64,2.72A448.61,448.61,0,0,1,783.54,768h245.15a24.08,24.08,0,0,0,.46-4.7V634.17a33.84,33.84,0,0,0,4-4.65V428.45C1033.16,397.51,974.74,370.16,885.24,353.54Z" />
</svg>