<svg id="Cobertura" xmlns="http://www.w3.org/2000/svg" viewBox="0 0 1366 768">
    <defs>
        <style>.topping-path{fill:gray;}</style>
    </defs>
    <path class="topping-path" d="M683,193c-111.7,0-202.24,23.73-202.24,53v53.64h.07c0,19.61.11,39.22.15,58.83,0,4.39.8,8.32,6.33,8.51,4.31.15,6.46-2.88,6.5-9,0-7.55,0-15.1,0-22.65,0-5.74,2.63-9.92,7.76-12.32,9.37-4.38,19.07,2.32,19.11,13.31.1,24.67,0,49.35,0,74,0,7.79,1.85,11,6.27,10.79,4.24-.17,5.83-3.05,5.83-10.63,0-16.21-.1-32.42.06-48.62.09-8.49,5.88-14.45,13.56-14.55s13.35,5.86,13.7,14.33c.08,2,.07,4.05,0,6.08-.1,4,.76,7.75,5.55,8,5,.22,6.49-3.37,6.51-7.74,0-7-.07-14,.06-21A12.67,12.67,0,0,1,581.14,335c9.07-3.19,18,3.24,18.05,13.33.16,16,0,32,.09,48.07,0,4.15,1.59,7.46,6.32,7.33,4.43-.13,5.72-3.29,5.68-7.28,0-5.71,0-11.42,0-17.13.05-9.61,5.05-15.55,13.22-15.73,8.54-.18,14,5.69,14.15,15.49.14,12.34,0,24.68,0,37,0,2.94-.66,6.12.23,8.77.8,2.36,3.2,5.61,5.11,5.77s4.63-2.65,6.1-4.78c1-1.42.54-3.92.54-5.93,0-20.81,0-41.62.06-62.43,0-7.8,4.87-12.9,12.41-13.56a13.37,13.37,0,0,1,14.56,11.4,49.39,49.39,0,0,1,.48,7.7c.09,6.63-.36,13.31.36,19.86.24,2.13,3.39,5.41,5.3,5.48s4.49-2.92,5.75-5.14c1-1.71.38-4.31.42-6.52.16-9.7,5.08-15.31,13.5-15.37,9-.07,13.92,5.35,14,15.36.07,8.66,0,17.31.07,26,0,3.79,1.81,6.55,5.88,6.6s5.87-2.53,6-6.41c0-1.47,0-2.95,0-4.42,0-11.79-.07-23.58,0-35.36.05-7.14,3.56-12,9.67-13.82,9.39-2.83,17.7,3.76,17.84,14.57.2,15.84.06,31.68.07,47.52,0,1.65-.54,3.66.2,4.89,1.17,1.94,3.29,4.74,4.86,4.64,2.05-.12,4.31-2.44,5.79-4.34.82-1.06.29-3.21.29-4.86,0-11.23-.21-22.48.14-33.7.29-9.24,6.21-14.8,14.6-14.55,8.17.24,12.87,5.79,12.91,15.27,0,4.42-.16,8.85.14,13.25.24,3.45,2.07,6,5.94,6s5.39-2.65,5.68-6.14c.11-1.28.05-2.58.05-3.87,0-16.2,0-32.41,0-48.62,0-9.82,5.26-16,13.55-16.14s13.93,6.36,14.08,16.34c0,1.84,0,3.69,0,5.53q0,33.15,0,66.3c0,4.31-.25,9.37,5.64,9.55,6.15.19,5.73-4.92,5.73-9.23q0-25.14,0-50.28a85.79,85.79,0,0,1,.55-12.11c1.11-7.7,7.41-12.64,14.66-12s12.21,6.32,12.41,13.79c.09,3.49-.52,7.18.44,10.41.63,2.13,3.68,5.2,5.28,5,1.87-.24,3.71-2.33,5.15-4.28V246C885.24,216.76,794.7,193,683,193Z" />
    <path class="topping-path" d="M882.14,353V438.3c0,28.81-89.16,52.18-199.14,52.18S483.86,467.11,483.86,438.3V353c-91.25,16.57-151,44.2-151,75.49v92.88H333c0,33.95.2,67.9.26,101.86,0,7.59,1.39,14.4,11,14.73,7.46.26,11.18-5,11.25-15.56.08-13.08,0-26.15,0-39.22,0-9.94,4.56-17.18,13.44-21.34,16.22-7.57,33,4,33.08,23,.18,42.73.06,85.46.07,128.19,0,13.49,3.21,19,10.86,18.67,7.34-.28,10.09-5.28,10.1-18.4,0-28.06-.18-56.12.1-84.18.15-14.69,10.18-25,23.48-25.19s23.11,10.14,23.72,24.81c.14,3.51.11,7,0,10.53-.18,7,1.32,13.41,9.61,13.77,8.69.38,11.23-5.83,11.27-13.38.07-12.12-.12-24.24.1-36.35.18-9.92,6-17.61,15.32-20.88,15.69-5.52,31.08,5.6,31.25,23.08.27,27.74,0,55.48.14,83.22,0,7.2,2.76,12.93,10.94,12.69,7.67-.22,9.91-5.7,9.85-12.61-.09-9.88-.05-19.77,0-29.65.08-16.64,8.74-26.92,22.89-27.22,14.77-.32,24.3,9.83,24.5,26.81.24,21.36.06,42.72.07,64.09,0,5.1-1.14,10.6.4,15.19,1.37,4.09,5.52,9.72,8.83,10s8-4.6,10.58-8.28c1.7-2.46.93-6.78.93-10.26.05-36-.06-72.07.1-108.1.06-13.5,8.43-22.33,21.49-23.48,12.4-1.09,23,7.08,25.2,19.75a85.73,85.73,0,0,1,.84,13.32c.15,11.48-.63,23,.62,34.39.41,3.69,5.86,9.36,9.18,9.49s7.77-5.05,10-8.9c1.67-3,.64-7.47.71-11.29.29-16.8,8.8-26.5,23.39-26.61,15.48-.12,24.1,9.26,24.23,26.6.12,15,0,30,.12,45C742.94,706.16,746,711,753,711s10.17-4.39,10.41-11.11c.1-2.54.07-5.1.07-7.65,0-20.41-.11-40.81,0-61.22.1-12.36,6.17-20.75,16.75-23.93,16.26-4.89,30.64,6.52,30.88,25.23.35,27.42.1,54.85.12,82.27,0,2.87-.93,6.35.35,8.47,2,3.35,5.7,8.21,8.41,8,3.56-.21,7.47-4.22,10-7.52,1.42-1.83.5-5.55.5-8.41.06-19.45-.35-38.92.24-58.35.5-16,10.75-25.62,25.28-25.19,14.16.41,22.28,10,22.36,26.43,0,7.65-.28,15.33.24,22.95.42,6,3.59,10.39,10.28,10.31s9.33-4.57,9.84-10.63c.19-2.21.08-4.46.08-6.69,0-28.06,0-56.12,0-84.18,0-17,9.09-27.68,23.46-27.94s24.11,11,24.36,28.28c.05,3.19,0,6.38,0,9.57q0,57.39,0,114.79c0,7.47-.44,16.23,9.76,16.54,10.64.33,9.92-8.52,9.92-16,0-29-.06-58,0-87,0-7,0-14.07,1-21,1.92-13.34,12.82-21.9,25.37-20.71,12.35,1.17,21.16,10.93,21.49,23.86.16,6-.89,12.44.76,18,1.09,3.69,6.39,9,9.15,8.63,3.24-.42,6.42-4,8.92-7.41V428.45C1033.16,397.16,973.39,369.53,882.14,353Z" />
</svg>